<svg width="35" height="35" viewBox="0 0 35 35" fill="none" xmlns="http://www.w3.org/2000/svg">
<path d="M33.25 16.0983H31.535C30.5673 16.0983 29.785 16.7265 29.785 17.5C29.785 18.2718 30.5673 18.8982 31.535 18.8982H33.25C34.216 18.8982 35 18.2735 35 17.5C35 16.7282 34.2142 16.0983 33.25 16.0983ZM17.5 7.875C16.2349 7.87107 14.9816 8.11735 13.812 8.59966C12.6425 9.08197 11.5799 9.79079 10.6853 10.6853C9.79079 11.5799 9.08197 12.6425 8.59966 13.812C8.11735 14.9816 7.87107 16.2349 7.875 17.5C7.875 22.8393 12.1607 27.125 17.5 27.125C22.8375 27.125 27.125 22.8393 27.125 17.5C27.125 12.1607 22.8358 7.875 17.5 7.875ZM17.5 24.5C13.6308 24.5 10.5 21.3658 10.5 17.5C10.5 13.6308 13.6308 10.5 17.5 10.5C19.3565 10.5 21.137 11.2375 22.4497 12.5503C23.7625 13.863 24.5 15.6435 24.5 17.5C24.5 19.3565 23.7625 21.137 22.4497 22.4497C21.137 23.7625 19.3565 24.5 17.5 24.5ZM5.25 17.5C5.25 16.7282 4.46425 16.0983 3.5 16.0983H1.75C0.78225 16.0983 0 16.7265 0 17.5C0 18.2718 0.78225 18.8982 1.75 18.8982H3.5C4.46425 18.8982 5.25 18.2718 5.25 17.5ZM17.5 5.25C18.2718 5.25 18.8982 4.46775 18.8982 3.5V1.75C18.8982 0.78225 18.2718 0 17.5 0C16.7265 0 16.0983 0.78225 16.0983 1.75V3.5C16.0983 4.46775 16.7265 5.25 17.5 5.25ZM17.5 29.75C16.7265 29.75 16.0983 30.5323 16.0983 31.5V33.25C16.0983 34.2177 16.7265 35 17.5 35C18.2718 35 18.8982 34.2177 18.8982 33.25V31.5C18.8982 30.5323 18.2718 29.75 17.5 29.75ZM30.3887 6.5905C31.073 5.90625 31.1832 4.90875 30.6372 4.36275C30.0912 3.81675 29.092 3.92875 28.4113 4.613L27.1862 5.83625C26.502 6.5205 26.3917 7.518 26.9377 8.064C27.4837 8.61 28.483 8.498 29.1655 7.81375L30.3887 6.5905ZM5.8345 27.1827L4.6095 28.4095C3.92525 29.0937 3.815 30.0877 4.361 30.6337C4.907 31.1797 5.90625 31.0713 6.587 30.387L7.812 29.1638C8.49625 28.4795 8.6065 27.482 8.0605 26.9342C7.5145 26.3865 6.51525 26.502 5.8345 27.1827ZM6.58875 4.61125C5.90625 3.927 4.907 3.815 4.361 4.361C3.815 4.907 3.927 5.90625 4.60775 6.5905L5.83275 7.81375C6.517 8.498 7.51275 8.61 8.05875 8.064C8.60475 7.518 8.4945 6.51875 7.812 5.83625L6.58875 4.61125ZM27.1845 29.1655L28.4095 30.3887C29.0937 31.073 30.0895 31.1815 30.6355 30.639C31.1815 30.093 31.0713 29.0938 30.387 28.4113L29.1638 27.188C28.4795 26.5038 27.482 26.3917 26.9342 26.9377C26.3865 27.4837 26.5003 28.4813 27.1845 29.1655Z" fill="#281900"/>
</svg>
