<svg width="35" height="35" viewBox="0 0 35 35" fill="none" xmlns="http://www.w3.org/2000/svg">
<path d="M28.5592 16.4121C28.2013 16.4121 27.858 16.5543 27.6049 16.8074C27.3518 17.0605 27.2096 17.4038 27.2096 17.7617V25.8594C27.2096 26.2173 27.0674 26.5606 26.8143 26.8137C26.5612 27.0668 26.218 27.209 25.86 27.209H6.9655C6.60756 27.209 6.26428 27.0668 6.01118 26.8137C5.75808 26.5606 5.61589 26.2173 5.61589 25.8594V6.96485C5.61589 6.60692 5.75808 6.26364 6.01118 6.01054C6.26428 5.75744 6.60756 5.61525 6.9655 5.61525H15.0632C15.4211 5.61525 15.7644 5.47306 16.0175 5.21995C16.2706 4.96685 16.4128 4.62358 16.4128 4.26564C16.4128 3.9077 16.2706 3.56442 16.0175 3.31132C15.7644 3.05822 15.4211 2.91603 15.0632 2.91603H6.9655C5.89168 2.91603 4.86185 3.3426 4.10255 4.1019C3.34324 4.8612 2.91667 5.89104 2.91667 6.96485V25.8594C2.91667 26.9332 3.34324 27.963 4.10255 28.7223C4.86185 29.4816 5.89168 29.9082 6.9655 29.9082H25.86C26.9338 29.9082 27.9637 29.4816 28.723 28.7223C29.4823 27.963 29.9088 26.9332 29.9088 25.8594V17.7617C29.9088 17.4038 29.7667 17.0605 29.5136 16.8074C29.2605 16.5543 28.9172 16.4121 28.5592 16.4121ZM8.31511 17.4378V23.1602C8.31511 23.5181 8.4573 23.8614 8.7104 24.1145C8.9635 24.3676 9.30678 24.5098 9.66472 24.5098H15.3871C15.5647 24.5108 15.7407 24.4768 15.9052 24.4096C16.0696 24.3424 16.2192 24.2435 16.3453 24.1184L25.6846 14.7656L29.5175 11.0137C29.644 10.8882 29.7444 10.7389 29.8129 10.5745C29.8814 10.41 29.9167 10.2336 29.9167 10.0555C29.9167 9.87729 29.8814 9.70089 29.8129 9.53643C29.7444 9.37197 29.644 9.2227 29.5175 9.09724L23.7951 3.30742C23.6697 3.18092 23.5204 3.08052 23.3559 3.012C23.1915 2.94348 23.0151 2.9082 22.8369 2.9082C22.6587 2.9082 22.4823 2.94348 22.3179 3.012C22.1534 3.08052 22.0041 3.18092 21.8787 3.30742L18.0728 7.12681L8.70649 16.4796C8.58141 16.6057 8.48245 16.7553 8.41529 16.9197C8.34812 17.0841 8.31408 17.2602 8.31511 17.4378ZM22.8369 6.16859L26.6563 9.98798L24.7398 11.9044L20.9205 8.08503L22.8369 6.16859ZM11.0143 17.9912L19.0175 9.98798L22.8369 13.8074L14.8337 21.8106H11.0143V17.9912Z" fill="currentColor"/>
</svg>
