<svg width="35" height="35" viewBox="0 0 35 35" fill="none" xmlns="http://www.w3.org/2000/svg">
<path d="M28.5014 4.32998C27.5955 3.42416 26.367 2.91528 25.0859 2.91528C23.8049 2.91528 22.5763 3.42416 21.6705 4.32998L5.53559 20.4662C4.987 21.015 4.60145 21.7053 4.42186 22.4602L2.94363 28.6701C2.90361 28.8383 2.90736 29.014 2.95453 29.1805C3.0017 29.3469 3.09072 29.4984 3.2131 29.6207C3.33547 29.7429 3.48713 29.8318 3.65359 29.8787C3.82005 29.9257 3.99578 29.9293 4.16401 29.8891L10.3753 28.4109C11.1303 28.2309 11.8206 27.8449 12.3692 27.2958L13.923 25.7433C13.7278 24.8597 13.6699 23.9513 13.7515 23.0501L10.9368 25.8648C10.6533 26.1483 10.297 26.3481 9.90681 26.4412L5.29529 27.5388L6.39282 22.9273C6.48597 22.5371 6.68577 22.1807 6.96926 21.8972L23.1015 5.76231C23.3621 5.5017 23.6715 5.29498 24.012 5.15394C24.3525 5.01291 24.7174 4.94031 25.0859 4.94031C25.4545 4.94031 25.8194 5.01291 26.1599 5.15394C26.5004 5.29498 26.8098 5.5017 27.0704 5.76231C27.331 6.02291 27.5377 6.33229 27.6788 6.67279C27.8198 7.01328 27.8924 7.37822 27.8924 7.74677C27.8924 8.11532 27.8198 8.48026 27.6788 8.82076C27.5377 9.16125 27.331 9.47063 27.0704 9.73124L21.6989 15.1014C22.5996 15.0205 23.5075 15.0784 24.3907 15.2729L28.5014 11.1622C29.4072 10.2564 29.9161 9.02781 29.9161 7.74677C29.9161 6.46574 29.4072 5.23717 28.5014 4.33133V4.32998ZM29.9162 23.8412C29.9162 25.8104 29.1339 27.6989 27.7415 29.0914C26.349 30.4838 24.4605 31.2661 22.4913 31.2661C20.5221 31.2661 18.6335 30.4838 17.2411 29.0914C15.8487 27.6989 15.0664 25.8104 15.0664 23.8412C15.0664 21.872 15.8487 19.9834 17.2411 18.591C18.6335 17.1986 20.5221 16.4163 22.4913 16.4163C24.4605 16.4163 26.349 17.1986 27.7415 18.591C29.1339 19.9834 29.9162 21.872 29.9162 23.8412ZM20.2692 20.6633C20.1425 20.5366 19.9706 20.4654 19.7913 20.4654C19.6121 20.4654 19.4402 20.5366 19.3134 20.6633C19.1867 20.7901 19.1155 20.962 19.1155 21.1412C19.1155 21.3205 19.1867 21.4924 19.3134 21.6191L21.5369 23.8412L19.3134 26.0632C19.1867 26.19 19.1155 26.3619 19.1155 26.5411C19.1155 26.7204 19.1867 26.8923 19.3134 27.019C19.4402 27.1458 19.6121 27.217 19.7913 27.217C19.9706 27.217 20.1425 27.1458 20.2692 27.019L22.4913 24.7956L24.7133 27.019C24.7761 27.0818 24.8506 27.1316 24.9326 27.1655C25.0146 27.1995 25.1025 27.217 25.1912 27.217C25.28 27.217 25.3679 27.1995 25.4499 27.1655C25.5319 27.1316 25.6064 27.0818 25.6691 27.019C25.7319 26.9563 25.7817 26.8818 25.8156 26.7998C25.8496 26.7178 25.8671 26.6299 25.8671 26.5411C25.8671 26.4524 25.8496 26.3645 25.8156 26.2825C25.7817 26.2005 25.7319 26.126 25.6691 26.0632L23.4457 23.8412L25.6691 21.6191C25.7959 21.4924 25.8671 21.3205 25.8671 21.1412C25.8671 20.962 25.7959 20.7901 25.6691 20.6633C25.5424 20.5366 25.3705 20.4654 25.1912 20.4654C25.012 20.4654 24.8401 20.5366 24.7133 20.6633L22.4913 22.8868L20.2692 20.6633Z" fill="currentColor"/>
</svg>
